<?xml version="1.0" standalone="no"?>
<!DOCTYPE svg PUBLIC "-//W3C//DTD SVG 20010904//EN"
 "http://www.w3.org/TR/2001/REC-SVG-20010904/DTD/svg10.dtd">
<svg version="1.0" xmlns="http://www.w3.org/2000/svg"
 width="256.000000pt" height="256.000000pt" viewBox="0 0 256.000000 256.000000"
 preserveAspectRatio="xMidYMid meet">
<metadata>
Created by potrace 1.14, written by Peter Selinger 2001-2017
</metadata>
<g transform="translate(0.000000,256.000000) scale(0.100000,-0.100000)"
fill="#000000" stroke="none">
<path d="M595 2322 l-156 -207 -207 -158 c-114 -87 -208 -162 -210 -166 -1 -4
13 -121 33 -260 l36 -251 -36 -252 c-19 -138 -35 -257 -35 -263 0 -7 93 -83
208 -170 l207 -158 145 -189 c80 -104 152 -198 160 -209 15 -19 20 -18 272 19
l258 39 262 -39 c250 -36 264 -38 275 -21 7 10 78 103 158 208 l146 190 206
157 c113 87 208 159 210 161 1 2 -13 121 -32 263 l-35 260 35 260 c19 142 31
262 27 265 -4 3 -43 33 -87 65 -344 258 -306 222 -481 453 -143 191 -161 211
-184 206 -14 -2 -131 -18 -260 -36 l-235 -31 -240 31 c-132 18 -250 34 -262
36 -18 4 -46 -28 -178 -203z m393 56 c89 -12 162 -24 162 -28 0 -3 -51 -56
-114 -119 l-113 -113 -174 -6 -173 -5 50 64 c28 35 78 101 113 147 34 45 67
82 74 82 7 0 85 -10 175 -22z m866 -120 l107 -143 -78 -3 c-43 -2 -121 0 -173
3 l-94 7 -116 116 -115 116 150 22 c232 33 196 47 319 -118z m-465 -52 l103
-104 -72 -7 c-39 -4 -105 -7 -145 -7 -40 0 -106 3 -145 7 l-72 7 103 104 c57
57 108 104 114 104 6 0 57 -47 114 -104z m-555 -208 c-4 -7 -34 -46 -67 -85
-49 -60 -110 -116 -215 -196 -11 -8 -13 14 -11 117 0 70 3 136 6 146 5 20 1
20 216 28 63 2 77 0 71 -10z m1163 -2 c1 -1 5 -66 9 -145 8 -165 18 -158 -97
-67 -62 49 -157 155 -193 214 -7 13 11 14 135 7 79 -4 145 -8 146 -9z m-784
-13 c4 -2 7 -34 7 -71 l0 -67 -110 -110 -109 -109 -23 20 c-28 24 -105 100
-137 136 l-24 27 78 97 77 96 117 -7 c64 -4 119 -9 124 -12z m442 -79 l78 -96
-92 -92 -91 -91 -113 113 -113 113 -1 60 c0 33 5 63 11 67 13 8 105 18 187 20
l57 2 77 -96z m-1218 -76 c-4 -73 -7 -149 -7 -169 0 -31 -13 -48 -114 -154
-63 -66 -117 -118 -119 -115 -3 3 -16 83 -29 178 l-25 173 141 109 c78 60 145
109 150 109 5 1 6 -55 3 -131z m1831 18 c110 -83 132 -104 132 -125 -1 -14
-11 -97 -23 -184 l-22 -158 -119 120 -118 120 -6 172 c-4 146 -3 171 9 164 8
-5 74 -54 147 -109z m-1433 -206 l90 -90 -110 -110 -110 -110 -67 0 c-38 0
-68 3 -68 8 0 4 -7 59 -14 122 -8 63 -14 116 -12 117 13 13 192 152 196 153 3
0 46 -41 95 -90z m1071 15 c106 -85 100 -69 83 -225 l-12 -100 -66 0 -66 0
-110 110 -110 110 90 90 c49 49 91 90 93 90 2 0 46 -34 98 -75z m-413 -163
l217 -217 -218 -218 -217 -217 -220 220 -220 220 215 215 c118 118 217 215
220 215 3 0 103 -98 223 -218z m802 -217 c0 -7 -44 -58 -97 -114 l-97 -101 -6
42 c-21 149 -21 179 1 347 l6 44 96 -103 c53 -57 97 -109 97 -115z m-1835 104
c12 -95 9 -207 -8 -287 l-7 -33 -100 107 c-55 59 -99 112 -97 118 4 13 185
196 193 196 4 0 12 -45 19 -101z m350 -264 c61 -60 110 -112 110 -116 0 -7
-170 -179 -176 -179 -3 0 -48 34 -100 75 -61 49 -94 82 -94 95 0 53 23 226 31
231 5 3 34 5 64 4 l55 -1 110 -109z m1161 106 c8 -2 32 -228 26 -245 -5 -14
-184 -156 -196 -156 -4 0 -47 41 -96 90 l-90 90 110 110 c113 114 119 117 205
114 19 -1 38 -2 41 -3z m-1538 -373 c4 -46 7 -125 7 -176 l0 -92 -139 105
c-76 57 -143 110 -148 117 -7 9 -2 69 16 192 l25 179 117 -121 116 -122 6 -82z
m1945 155 c12 -93 22 -175 22 -184 0 -9 -61 -63 -137 -121 -178 -135 -165
-128 -159 -78 3 23 6 101 7 173 l1 132 117 121 c64 67 119 122 122 123 3 0 15
-74 27 -166z m-1266 -190 l108 -108 0 -71 0 -71 -81 -7 c-44 -4 -99 -9 -122
-12 l-42 -6 -79 102 -79 102 89 89 c49 49 91 89 94 89 2 0 53 -48 112 -107z
m531 19 l87 -89 -81 -102 -81 -103 -52 6 c-28 3 -80 9 -116 12 -36 4 -68 11
-71 17 -4 5 -5 39 -3 75 l4 67 102 102 c57 57 107 103 113 103 5 0 49 -40 98
-88z m-1005 -65 c61 -49 106 -99 196 -216 8 -11 -14 -12 -131 -10 -78 2 -144
6 -146 9 -3 3 -9 70 -13 149 -6 122 -5 143 7 136 8 -5 47 -35 87 -68z m1366
-69 c-4 -86 -11 -146 -18 -150 -12 -9 -276 -11 -276 -3 0 22 137 172 207 228
48 37 88 67 90 67 2 0 0 -64 -3 -142z m-524 -257 c2 0 -42 -48 -100 -106
l-105 -105 -102 102 c-57 57 -103 105 -103 109 0 15 199 24 300 13 58 -6 107
-12 110 -13z m-443 -124 c62 -61 109 -114 105 -118 -4 -3 -81 -16 -171 -29
l-165 -22 -27 33 c-15 19 -66 85 -114 148 l-87 114 173 -7 174 -8 112 -111z
m923 119 c0 -5 -113 -155 -192 -256 l-27 -34 -158 23 c-87 12 -166 25 -177 28
-15 4 3 26 95 119 l113 113 85 3 c48 2 125 4 174 6 48 2 87 1 87 -2z"/>
<path d="M1237 1313 l-157 -95 49 -56 c27 -32 70 -77 95 -102 l46 -44 130 129
c72 71 130 133 130 136 0 4 -31 34 -68 67 l-68 61 -157 -96z"/>
</g>
</svg>
