<svg width="48" height="48" viewBox="0 0 48 48" fill="none" xmlns="http://www.w3.org/2000/svg">
<path fill-rule="evenodd" clip-rule="evenodd" d="M19.1258 42.2632C20.2828 42.8417 22.0036 43.25 24 43.25C25.9964 43.25 27.7172 42.8417 28.8742 42.2632C30.1359 41.6323 30.25 41.0846 30.25 41H33.75C33.75 43.1245 32.0732 44.5768 30.4395 45.3937C28.7011 46.2629 26.4219 46.75 24 46.75C21.5781 46.75 19.2989 46.2629 17.5605 45.3937C15.9268 44.5768 14.25 43.1245 14.25 41H17.75C17.75 41.0846 17.8641 41.6323 19.1258 42.2632Z" fill="#5B00EF"/>
<path fill-rule="evenodd" clip-rule="evenodd" d="M14.25 38C14.25 33.1675 18.1675 29.25 23 29.25H25C29.8325 29.25 33.75 33.1675 33.75 38V41H30.25V38C30.25 35.1005 27.8995 32.75 25 32.75H23C20.1005 32.75 17.75 35.1005 17.75 38V41H14.25V38Z" fill="#5B00EF"/>
<path fill-rule="evenodd" clip-rule="evenodd" d="M24 24.75C22.7574 24.75 21.75 25.7574 21.75 27C21.75 28.2426 22.7574 29.25 24 29.25C25.2426 29.25 26.25 28.2426 26.25 27C26.25 25.7574 25.2426 24.75 24 24.75ZM18.25 27C18.25 23.8244 20.8244 21.25 24 21.25C27.1756 21.25 29.75 23.8244 29.75 27C29.75 30.1756 27.1756 32.75 24 32.75C20.8244 32.75 18.25 30.1756 18.25 27Z" fill="#5B00EF"/>
<path fill-rule="evenodd" clip-rule="evenodd" d="M24 4.75C22.6493 4.75 21.75 5.75011 21.75 6.75C21.75 7.7165 20.9665 8.5 20 8.5C19.0335 8.5 18.25 7.7165 18.25 6.75C18.25 3.60776 20.9325 1.25 24 1.25C27.0675 1.25 29.75 3.60776 29.75 6.75C29.75 9.04196 28.1583 10.3598 27.2396 11.1205C27.1984 11.1545 27.1586 11.1875 27.1203 11.2194C26.0124 12.1426 25.75 12.478 25.75 13C25.75 13.9665 24.9665 14.75 24 14.75C23.0335 14.75 22.25 13.9665 22.25 13C22.25 10.708 23.8417 9.39017 24.7604 8.62954C24.8016 8.59546 24.8414 8.56249 24.8797 8.53061C25.9876 7.60736 26.25 7.27201 26.25 6.75C26.25 5.75011 25.3507 4.75 24 4.75Z" fill="#5B00EF"/>
<path d="M25.75 17.75C25.75 18.7165 24.9665 19.5 24 19.5C23.0335 19.5 22.25 18.7165 22.25 17.75C22.25 16.7835 23.0335 16 24 16C24.9665 16 25.75 16.7835 25.75 17.75Z" fill="#5B00EF"/>
<path fill-rule="evenodd" clip-rule="evenodd" d="M38.0642 11.2125C37.1843 10.7045 36.2676 11.0363 35.9246 11.6305C35.4413 12.4675 34.371 12.7543 33.534 12.2711C32.697 11.7878 32.4102 10.7175 32.8935 9.88052C34.3077 7.43101 37.4475 6.815 39.8142 8.18141C42.1808 9.54781 43.2173 12.575 41.803 15.0245C40.7666 16.8197 38.9214 17.1308 37.9287 17.2981C37.8804 17.3063 37.8342 17.3141 37.7901 17.3217C36.5634 17.5337 36.3628 17.6593 36.2123 17.92C35.729 18.7571 34.6587 19.0438 33.8217 18.5606C32.9847 18.0773 32.6979 17.0071 33.1812 16.17C34.2177 14.3748 36.0628 14.0637 37.0555 13.8964C37.1038 13.8882 37.15 13.8804 37.1941 13.8728C38.4208 13.6608 38.6214 13.5352 38.7719 13.2745C39.115 12.6803 38.9441 11.7205 38.0642 11.2125Z" fill="#5B00EF"/>
<path d="M33.9671 21.2782C33.5571 21.9884 32.649 22.2317 31.9388 21.8217C31.2286 21.4117 30.9852 20.5036 31.3953 19.7934C31.8053 19.0832 32.7134 18.8398 33.4236 19.2499C34.1338 19.6599 34.3771 20.568 33.9671 21.2782Z" fill="#5B00EF"/>
<path fill-rule="evenodd" clip-rule="evenodd" d="M9.81416 11.2121C8.93425 11.7201 8.76332 12.6799 9.10637 13.2741C9.58962 14.1111 9.30284 15.1814 8.46583 15.6646C7.62882 16.1479 6.55853 15.8611 6.07528 15.0241C4.66106 12.5746 5.69747 9.54743 8.06416 8.18102C10.4308 6.81461 13.5706 7.43063 14.9848 9.88013C16.0213 11.6753 15.3681 13.4289 15.0167 14.3723C14.9997 14.4181 14.9833 14.4621 14.9679 14.504C14.5381 15.6724 14.5466 15.9089 14.6971 16.1697C15.1804 17.0067 14.8936 18.077 14.0566 18.5602C13.2196 19.0435 12.1493 18.7567 11.666 17.9197C10.6296 16.1245 11.2827 14.3709 11.6341 13.4275C11.6512 13.3817 11.6676 13.3377 11.683 13.2958C12.1128 12.1274 12.1043 11.8909 11.9538 11.6301C11.6107 11.036 10.6941 10.7041 9.81416 11.2121Z" fill="#5B00EF"/>
<path d="M16.4822 19.793C16.8923 20.5031 16.6489 21.4113 15.9387 21.8213C15.2285 22.2313 14.3204 21.988 13.9104 21.2778C13.5004 20.5676 13.7437 19.6595 14.4539 19.2495C15.1641 18.8394 16.0722 19.0828 16.4822 19.793Z" fill="#5B00EF"/>
</svg>
