<svg width="48" height="48" viewBox="0 0 48 48" fill="none" xmlns="http://www.w3.org/2000/svg">
<path fill-rule="evenodd" clip-rule="evenodd" d="M15.25 21C15.25 17.8244 17.8244 15.25 21 15.25H27C30.1756 15.25 32.75 17.8244 32.75 21V28C32.75 29.4838 31.5749 30.6931 30.1046 30.748L29.2434 40.6516C29.1648 41.5559 28.4077 42.25 27.5 42.25H20.5C19.5923 42.25 18.8352 41.5559 18.7566 40.6516L17.8954 30.748C16.4251 30.6931 15.25 29.4838 15.25 28V21ZM21 18.75C19.7574 18.75 18.75 19.7574 18.75 21V27.25H19.5C20.4077 27.25 21.1648 27.9441 21.2434 28.8484L22.1044 38.75H25.8956L26.7566 28.8484C26.8352 27.9441 27.5923 27.25 28.5 27.25H29.25V21C29.25 19.7574 28.2426 18.75 27 18.75H21Z" fill="#5B00EF"/>
<path fill-rule="evenodd" clip-rule="evenodd" d="M24 10.75C22.7574 10.75 21.75 11.7574 21.75 13C21.75 14.2426 22.7574 15.25 24 15.25C25.2426 15.25 26.25 14.2426 26.25 13C26.25 11.7574 25.2426 10.75 24 10.75ZM18.25 13C18.25 9.82436 20.8244 7.25 24 7.25C27.1756 7.25 29.75 9.82436 29.75 13C29.75 16.1756 27.1756 18.75 24 18.75C20.8244 18.75 18.25 16.1756 18.25 13Z" fill="#5B00EF"/>
<path fill-rule="evenodd" clip-rule="evenodd" d="M35.6203 40.1883C33.4311 39.4624 30.2666 38.923 26.5836 38.748L26.7497 35.252C30.6339 35.4365 34.1361 36.0088 36.7218 36.8661C38.0043 37.2913 39.1612 37.8189 40.0335 38.4758C40.8735 39.1084 41.75 40.0999 41.75 41.4687C41.75 42.9897 40.677 44.0433 39.7163 44.6866C38.6914 45.3728 37.3237 45.9224 35.7906 46.3566C32.7003 47.2317 28.5323 47.75 24 47.75C19.4677 47.75 15.2997 47.2317 12.2094 46.3566C10.6763 45.9224 9.30857 45.3728 8.2837 44.6866C7.323 44.0433 6.25 42.9897 6.25 41.4687C6.25 40.1534 7.06188 39.1852 7.86083 38.5571C8.68307 37.9106 9.77102 37.3912 10.9716 36.9706C13.3918 36.1227 16.6728 35.5384 20.3322 35.3032L20.5567 38.796C17.0908 39.0187 14.1496 39.5657 12.1289 40.2737C11.109 40.6311 10.4218 40.9958 10.0241 41.3085C9.94354 41.3718 9.88379 41.4255 9.83981 41.4691C9.91453 41.5439 10.0362 41.6479 10.231 41.7783C10.8254 42.1763 11.8008 42.6032 13.1632 42.989C15.8638 43.7538 19.6958 44.25 24 44.25C28.3042 44.25 32.1362 43.7538 34.8368 42.989C36.1992 42.6032 37.1746 42.1763 37.769 41.7783C37.9639 41.6478 38.0856 41.5438 38.1603 41.469C38.1081 41.4171 38.0336 41.3511 37.9281 41.2717C37.4828 40.9364 36.7252 40.5546 35.6203 40.1883ZM38.2742 41.6094C38.2739 41.6094 38.2721 41.6063 38.2696 41.5999C38.2732 41.6062 38.2745 41.6094 38.2742 41.6094ZM38.2695 41.3358C38.2708 41.3325 38.2717 41.3309 38.2718 41.3309C38.2719 41.3309 38.2712 41.3325 38.2695 41.3358ZM9.72821 41.3309C9.72831 41.3309 9.72917 41.3325 9.73049 41.3358C9.72878 41.3325 9.72812 41.3309 9.72821 41.3309ZM9.73015 41.5999C9.72746 41.6067 9.7255 41.61 9.7252 41.61C9.72489 41.61 9.72624 41.6066 9.73015 41.5999Z" fill="#5B00EF"/>
<path fill-rule="evenodd" clip-rule="evenodd" d="M6.25 18C6.25 8.19695 14.1969 0.25 24 0.25C33.8031 0.25 41.75 8.19695 41.75 18V42H38.25V18C38.25 10.1299 31.8701 3.75 24 3.75C16.1299 3.75 9.75 10.1299 9.75 18V42H6.25V18Z" fill="#5B00EF"/>
</svg>
