<svg width="32" height="33" viewBox="0 0 32 33" fill="none" xmlns="http://www.w3.org/2000/svg">
<path d="M16.0059 9.96478C12.2216 9.96478 9.1691 13.0172 9.1691 16.8016C9.1691 20.5859 12.2216 23.6384 16.0059 23.6384C19.7902 23.6384 22.8427 20.5859 22.8427 16.8016C22.8427 13.0172 19.7902 9.96478 16.0059 9.96478ZM16.0059 21.2464C13.5604 21.2464 11.5611 19.2531 11.5611 16.8016C11.5611 14.3501 13.5544 12.3568 16.0059 12.3568C18.4574 12.3568 20.4507 14.3501 20.4507 16.8016C20.4507 19.2531 18.4514 21.2464 16.0059 21.2464ZM24.717 9.68512C24.717 10.5717 24.003 11.2798 23.1224 11.2798C22.2358 11.2798 21.5277 10.5658 21.5277 9.68512C21.5277 8.80449 22.2417 8.09046 23.1224 8.09046C24.003 8.09046 24.717 8.80449 24.717 9.68512ZM29.2452 11.3036C29.144 9.16745 28.6561 7.27528 27.0912 5.71632C25.5322 4.15737 23.64 3.66945 21.5039 3.56234C19.3023 3.43739 12.7035 3.43739 10.5019 3.56234C8.37177 3.6635 6.4796 4.15142 4.91469 5.71037C3.34978 7.26933 2.86781 9.1615 2.76071 11.2976C2.63575 13.4992 2.63575 20.098 2.76071 22.2996C2.86186 24.4357 3.34978 26.3279 4.91469 27.8869C6.4796 29.4458 8.36582 29.9337 10.5019 30.0408C12.7035 30.1658 19.3023 30.1658 21.5039 30.0408C23.64 29.9397 25.5322 29.4518 27.0912 27.8869C28.6501 26.3279 29.138 24.4357 29.2452 22.2996C29.3701 20.098 29.3701 13.5052 29.2452 11.3036ZM26.4009 24.6618C25.9368 25.8281 25.0383 26.7266 23.8661 27.1966C22.1108 27.8928 17.9457 27.7322 16.0059 27.7322C14.0661 27.7322 9.89503 27.8869 8.14566 27.1966C6.97942 26.7325 6.08093 25.834 5.61087 24.6618C4.91469 22.9065 5.07535 18.7414 5.07535 16.8016C5.07535 14.8618 4.92064 10.6907 5.61087 8.94135C6.07498 7.7751 6.97347 6.87662 8.14566 6.40655C9.90098 5.71037 14.0661 5.87103 16.0059 5.87103C17.9457 5.87103 22.1168 5.71632 23.8661 6.40655C25.0324 6.87067 25.9309 7.76915 26.4009 8.94135C27.0971 10.6967 26.9365 14.8618 26.9365 16.8016C26.9365 18.7414 27.0971 22.9125 26.4009 24.6618Z" fill="white"/>
</svg>
