<svg width="24" height="25" viewBox="0 0 24 25" fill="none" xmlns="http://www.w3.org/2000/svg">
<g clip-path="url(#clip0_959_4931)">
<path d="M6.62 11.5974C8.06 14.4274 10.38 16.7374 13.21 18.1874L15.41 15.9874C15.68 15.7174 16.08 15.6274 16.43 15.7474C17.55 16.1174 18.76 16.3174 20 16.3174C20.55 16.3174 21 16.7674 21 17.3174V20.8074C21 21.3574 20.55 21.8074 20 21.8074C10.61 21.8074 3 14.1974 3 4.80737C3 4.25737 3.45 3.80737 4 3.80737H7.5C8.05 3.80737 8.5 4.25737 8.5 4.80737C8.5 6.05737 8.7 7.25737 9.07 8.37737C9.18 8.72737 9.1 9.11737 8.82 9.39737L6.62 11.5974Z" fill="white"/>
</g>
<defs>
<clipPath id="clip0_959_4931">
<rect width="24" height="24" fill="white" transform="translate(0 0.807373)"/>
</clipPath>
</defs>
</svg>
