<svg width="48" height="48" viewBox="0 0 48 48" fill="none" xmlns="http://www.w3.org/2000/svg">
<path fill-rule="evenodd" clip-rule="evenodd" d="M21.75 15C21.75 13.7574 22.7574 12.75 24 12.75C25.2426 12.75 26.25 13.7574 26.25 15C26.25 16.2426 25.2426 17.25 24 17.25C22.7574 17.25 21.75 16.2426 21.75 15ZM28.8254 18.1283C29.4103 17.2279 29.75 16.1536 29.75 15C29.75 11.8244 27.1756 9.25 24 9.25C20.8244 9.25 18.25 11.8244 18.25 15C18.25 16.1536 18.5897 17.2279 19.1746 18.1283C16.2591 19.5478 14.25 22.5392 14.25 26V29C14.25 31.1245 15.9268 32.5768 17.5605 33.3937C19.2989 34.2629 21.5781 34.75 24 34.75C26.4219 34.75 28.7011 34.2629 30.4395 33.3937C32.0732 32.5768 33.75 31.1245 33.75 29V26C33.75 22.5392 31.7409 19.5478 28.8254 18.1283ZM24 20.75H23C20.1005 20.75 17.75 23.1005 17.75 26V29C17.75 29.0846 17.8641 29.6323 19.1258 30.2632C20.2828 30.8417 22.0036 31.25 24 31.25C25.9964 31.25 27.7172 30.8417 28.8742 30.2632C30.1359 29.6323 30.25 29.0846 30.25 29V26C30.25 23.1005 27.8995 20.75 25 20.75H24Z" fill="#5B00EF"/>
<path fill-rule="evenodd" clip-rule="evenodd" d="M8.75 22C8.75 13.5777 15.5777 6.75 24 6.75C32.4223 6.75 39.25 13.5777 39.25 22C39.25 30.4223 32.4223 37.25 24 37.25C15.5777 37.25 8.75 30.4223 8.75 22ZM24 3.25C13.6447 3.25 5.25 11.6447 5.25 22C5.25 32.3553 13.6447 40.75 24 40.75C28.2919 40.75 32.247 39.308 35.4072 36.882L42.7627 44.2376C43.4461 44.921 44.5542 44.921 45.2376 44.2376C45.921 43.5542 45.921 42.4461 45.2376 41.7627L37.9753 34.5004C40.9445 31.1831 42.75 26.8024 42.75 22C42.75 11.6447 34.3553 3.25 24 3.25Z" fill="#5B00EF"/>
</svg>
