<svg width="48" height="48" viewBox="0 0 48 48" fill="none" xmlns="http://www.w3.org/2000/svg">
<path fill-rule="evenodd" clip-rule="evenodd" d="M19.6935 2.66911C20.1192 1.04576 21.5259 0 23.0438 0H26.9964C28.2481 0 29.4226 0.707338 30.0423 1.88819C30.5957 2.9428 30.5999 4.18847 30.1048 5.2292C30.655 5.55577 31.124 6.04225 31.442 6.6618C32.0626 7.87079 31.9797 9.33733 31.2172 10.4609L25.5047 18.8675L25.4931 18.8843C24.9883 19.6094 24.2015 20 23.4064 20C23.1208 20 22.8345 19.9484 22.5634 19.849C21.4904 19.4596 20.744 18.3432 20.8409 17.0746L20.8413 17.0686L21.1217 13.5424C20.1773 13.4624 19.2883 12.9841 18.6777 12.1742C18.0084 11.2864 17.7617 10.1176 18.0538 8.99207L19.6935 2.66911ZM22.9285 3.63993L22.929 3.63874L22.9285 3.63993ZM22.929 3.63874L21.2984 9.92677C21.3106 9.94035 21.3416 9.96467 21.4054 9.96467H22.9498C23.2291 9.96467 24.18 10 24.6601 10L24.4311 14.3365L28.4827 8.37412C28.4799 8.37184 28.4764 8.36937 28.4722 8.36681C28.4533 8.35517 28.4236 8.34416 28.3841 8.34416H27.2113C25.7431 8.34416 25.1402 8.34416 25.1402 8.34416L27.0951 3.62423C27.0777 3.60815 27.046 3.58974 26.9964 3.58974H23.0438C22.9998 3.58974 22.9666 3.60469 22.9462 3.62064C22.9351 3.62937 22.9305 3.63604 22.929 3.63874Z" fill="#5B00EF"/>
<path fill-rule="evenodd" clip-rule="evenodd" d="M2.99119 17.1172C1.90722 15.9419 1.7653 14.1632 2.51099 12.7941L4.45283 9.22887C5.06777 8.09985 6.20821 7.3853 7.45325 7.40206C8.56519 7.41703 9.55951 8.0205 10.1453 8.97436C10.6758 8.63729 11.2937 8.45146 11.9434 8.46664C13.2113 8.49624 14.3388 9.28599 14.8592 10.5214L18.7492 19.7723L18.7569 19.7909C19.0864 20.5998 19.0111 21.4999 18.6205 22.2171C18.4802 22.4746 18.2984 22.7077 18.0861 22.9038C17.2487 23.6818 15.9928 23.8108 15.0298 23.1049L15.0253 23.1016L12.3542 21.1297C11.8265 21.9425 11.0087 22.5112 10.0636 22.6671C9.02759 22.838 7.97539 22.4908 7.22231 21.6786L2.99119 17.1172ZM5.35379 14.6726L5.35309 14.6715L5.35379 14.6726ZM5.35309 14.6715L9.56087 19.2077C9.57766 19.2033 9.6123 19.1872 9.64363 19.1297L10.4023 17.7367C10.5396 17.4847 11.0349 16.6442 11.2707 16.2112L14.6126 18.5318L11.8536 11.9706C11.8503 11.9721 11.8467 11.974 11.8426 11.9765C11.824 11.9879 11.8006 12.0094 11.7812 12.045L11.2051 13.1028C10.4838 14.4272 10.1876 14.971 10.1876 14.971L7.38828 10.9066C7.36688 10.9146 7.33666 10.9342 7.3123 10.9789L5.37046 14.5441C5.34883 14.5838 5.34445 14.621 5.34716 14.6471C5.34864 14.6615 5.35167 14.6689 5.35309 14.6715Z" fill="#5B00EF"/>
<path fill-rule="evenodd" clip-rule="evenodd" d="M36.1907 7.17071C37.2996 6.02168 38.9775 5.87125 40.2691 6.66169L43.6325 8.72008C44.6976 9.37192 45.3716 10.5808 45.3558 11.9006C45.3417 13.0793 44.7724 14.1333 43.8726 14.7542C44.1905 15.3165 44.3658 15.9715 44.3515 16.6602C44.3236 18.0043 43.5786 19.1994 42.4131 19.751L33.686 23.8745L33.6684 23.8827C32.9054 24.232 32.0562 24.1521 31.3797 23.738C31.1367 23.5893 30.9168 23.3967 30.7318 23.1715C29.9979 22.2839 29.8762 20.9526 30.5421 19.9318L30.5452 19.9271L32.4055 17.0956C31.6386 16.5363 31.1021 15.6695 30.9551 14.6676C30.7939 13.5694 31.1214 12.4541 31.8876 11.6558L36.1907 7.17071ZM38.497 9.67511L38.498 9.67437L38.497 9.67511ZM38.498 9.67437L34.2186 14.1347C34.2227 14.1525 34.238 14.1892 34.2922 14.2224L35.6064 15.0267C35.8441 15.1721 36.637 15.6972 37.0455 15.9472L34.8563 19.4896L41.046 16.565C41.0446 16.5616 41.0427 16.5577 41.0404 16.5533C41.0296 16.5337 41.0094 16.5089 40.9758 16.4883L39.9778 15.8776C38.7285 15.113 38.2155 14.799 38.2155 14.799L42.0497 11.8317C42.0422 11.809 42.0237 11.777 41.9815 11.7512L38.6182 9.69278C38.5807 9.66986 38.5456 9.66522 38.521 9.66808C38.5075 9.66965 38.5005 9.67287 38.498 9.67437Z" fill="#5B00EF"/>
<path fill-rule="evenodd" clip-rule="evenodd" d="M19.2861 43.2632C20.4367 43.8417 22.148 44.25 24.1332 44.25C26.1185 44.25 27.8297 43.8417 28.9803 43.2632C30.235 42.6323 30.3484 42.0846 30.3484 42H33.8289C33.8289 44.1245 32.1615 45.5768 30.5368 46.3937C28.8081 47.2629 26.5416 47.75 24.1332 47.75C21.7248 47.75 19.4583 47.2629 17.7296 46.3937C16.1049 45.5768 14.4375 44.1245 14.4375 42H17.918C17.918 42.0846 18.0315 42.6323 19.2861 43.2632Z" fill="#5B00EF"/>
<path fill-rule="evenodd" clip-rule="evenodd" d="M14.4375 39C14.4375 34.1675 18.3332 30.25 23.1388 30.25H25.1276C29.9332 30.25 33.8289 34.1675 33.8289 39V42H30.3484V39C30.3484 36.1005 28.011 33.75 25.1276 33.75H23.1388C20.2554 33.75 17.918 36.1005 17.918 39V42H14.4375V39Z" fill="#5B00EF"/>
<path fill-rule="evenodd" clip-rule="evenodd" d="M24.133 25.75C22.8973 25.75 21.8956 26.7574 21.8956 28C21.8956 29.2426 22.8973 30.25 24.133 30.25C25.3687 30.25 26.3705 29.2426 26.3705 28C26.3705 26.7574 25.3687 25.75 24.133 25.75ZM18.415 28C18.415 24.8244 20.9751 22.25 24.133 22.25C27.291 22.25 29.851 24.8244 29.851 28C29.851 31.1756 27.291 33.75 24.133 33.75C20.9751 33.75 18.415 31.1756 18.415 28Z" fill="#5B00EF"/>
</svg>
