<svg width="48" height="48" viewBox="0 0 48 48" fill="none" xmlns="http://www.w3.org/2000/svg">
<path fill-rule="evenodd" clip-rule="evenodd" d="M19.1258 28.2632C20.2828 28.8417 22.0036 29.25 24 29.25C25.9964 29.25 27.7172 28.8417 28.8742 28.2632C30.1359 27.6323 30.25 27.0846 30.25 27H33.75C33.75 29.1245 32.0732 30.5768 30.4395 31.3937C28.7011 32.2629 26.4219 32.75 24 32.75C21.5781 32.75 19.2989 32.2629 17.5605 31.3937C15.9268 30.5768 14.25 29.1245 14.25 27H17.75C17.75 27.0846 17.8641 27.6323 19.1258 28.2632Z" fill="#5B00EF"/>
<path fill-rule="evenodd" clip-rule="evenodd" d="M14.25 24C14.25 19.1675 18.1675 15.25 23 15.25H25C29.8325 15.25 33.75 19.1675 33.75 24V27H30.25V24C30.25 21.1005 27.8995 18.75 25 18.75H23C20.1005 18.75 17.75 21.1005 17.75 24V27H14.25V24Z" fill="#5B00EF"/>
<path fill-rule="evenodd" clip-rule="evenodd" d="M24 10.75C22.7574 10.75 21.75 11.7574 21.75 13C21.75 14.2426 22.7574 15.25 24 15.25C25.2426 15.25 26.25 14.2426 26.25 13C26.25 11.7574 25.2426 10.75 24 10.75ZM18.25 13C18.25 9.82436 20.8244 7.25 24 7.25C27.1756 7.25 29.75 9.82436 29.75 13C29.75 16.1756 27.1756 18.75 24 18.75C20.8244 18.75 18.25 16.1756 18.25 13Z" fill="#5B00EF"/>
<path fill-rule="evenodd" clip-rule="evenodd" d="M24 4.75C15.5777 4.75 8.75 11.5777 8.75 20C8.75 26.0929 12.3926 31.9308 16.4231 36.3889C18.4115 38.5881 20.4308 40.3808 22.0031 41.6161C22.7902 42.2346 23.4504 42.7016 23.9249 43.005C23.9508 43.0215 23.9758 43.0373 24 43.0526C24.0242 43.0373 24.0492 43.0215 24.0751 43.005C24.5496 42.7016 25.2098 42.2346 25.9969 41.6161C27.5692 40.3808 29.5885 38.5881 31.5769 36.3889C35.6074 31.9308 39.25 26.0929 39.25 20C39.25 11.5777 32.4223 4.75 24 4.75ZM5.25 20C5.25 9.64466 13.6447 1.25 24 1.25C34.3553 1.25 42.75 9.64466 42.75 20C42.75 27.4071 38.3926 34.0692 34.1731 38.7361C32.0365 41.0994 29.8683 43.0255 28.1593 44.3682C27.3058 45.0389 26.5519 45.5757 25.9601 45.954C25.6671 46.1413 25.3911 46.3043 25.1489 46.4275C25.0295 46.4882 24.8914 46.553 24.7469 46.6068C24.6523 46.642 24.3605 46.75 24 46.75C23.6395 46.75 23.3477 46.642 23.2531 46.6068C23.1086 46.553 22.9705 46.4882 22.8511 46.4275C22.6089 46.3043 22.3329 46.1413 22.0399 45.954C21.4481 45.5757 20.6942 45.0389 19.8407 44.3682C18.1317 43.0255 15.9635 41.0994 13.8269 38.7361C9.60744 34.0692 5.25 27.4071 5.25 20Z" fill="#5B00EF"/>
</svg>
