<svg width="48" height="48" viewBox="0 0 48 48" fill="none" xmlns="http://www.w3.org/2000/svg">
<path fill-rule="evenodd" clip-rule="evenodd" d="M24 3.75C19.4437 3.75 15.75 7.44365 15.75 12C15.75 16.5563 19.4437 20.25 24 20.25C28.5563 20.25 32.25 16.5563 32.25 12C32.25 7.44365 28.5563 3.75 24 3.75ZM12.25 12C12.25 5.51065 17.5107 0.25 24 0.25C30.4893 0.25 35.75 5.51065 35.75 12C35.75 18.4893 30.4893 23.75 24 23.75C17.5107 23.75 12.25 18.4893 12.25 12Z" fill="#5B00EF"/>
<path fill-rule="evenodd" clip-rule="evenodd" d="M22.25 22V2H25.75V22H22.25Z" fill="#5B00EF"/>
<path fill-rule="evenodd" clip-rule="evenodd" d="M22.9332 9.36291C23.5622 8.87903 24.4381 8.87903 25.0672 9.36291L32.7142 15.2453L30.5803 18.0194L24.0002 12.9579L17.4201 18.0194L15.2861 15.2453L22.9332 9.36291Z" fill="#5B00EF"/>
<path fill-rule="evenodd" clip-rule="evenodd" d="M6.12577 42.2632C7.28278 42.8417 9.00363 43.25 11 43.25C12.9964 43.25 14.7172 42.8417 15.8742 42.2632C17.1359 41.6323 17.25 41.0846 17.25 41H20.75C20.75 43.1245 19.0732 44.5768 17.4395 45.3937C15.7011 46.2629 13.4219 46.75 11 46.75C8.57809 46.75 6.29894 46.2629 4.56052 45.3937C2.92677 44.5768 1.25 43.1245 1.25 41H4.75C4.75 41.0846 4.86409 41.6323 6.12577 42.2632Z" fill="#5B00EF"/>
<path fill-rule="evenodd" clip-rule="evenodd" d="M1.25 38C1.25 33.1675 5.16751 29.25 10 29.25H12C16.8325 29.25 20.75 33.1675 20.75 38V41H17.25V38C17.25 35.1005 14.8995 32.75 12 32.75H10C7.10051 32.75 4.75 35.1005 4.75 38V41H1.25V38Z" fill="#5B00EF"/>
<path fill-rule="evenodd" clip-rule="evenodd" d="M11 24.75C9.75736 24.75 8.75 25.7574 8.75 27C8.75 28.2426 9.75736 29.25 11 29.25C12.2426 29.25 13.25 28.2426 13.25 27C13.25 25.7574 12.2426 24.75 11 24.75ZM5.25 27C5.25 23.8244 7.82436 21.25 11 21.25C14.1756 21.25 16.75 23.8244 16.75 27C16.75 30.1756 14.1756 32.75 11 32.75C7.82436 32.75 5.25 30.1756 5.25 27Z" fill="#5B00EF"/>
<path fill-rule="evenodd" clip-rule="evenodd" d="M32.1258 42.2632C33.2828 42.8417 35.0036 43.25 37 43.25C38.9964 43.25 40.7172 42.8417 41.8742 42.2632C43.1359 41.6323 43.25 41.0846 43.25 41H46.75C46.75 43.1245 45.0732 44.5768 43.4395 45.3937C41.7011 46.2629 39.4219 46.75 37 46.75C34.5781 46.75 32.2989 46.2629 30.5605 45.3937C28.9268 44.5768 27.25 43.1245 27.25 41H30.75C30.75 41.0846 30.8641 41.6323 32.1258 42.2632Z" fill="#5B00EF"/>
<path fill-rule="evenodd" clip-rule="evenodd" d="M27.25 38C27.25 33.1675 31.1675 29.25 36 29.25H38C42.8325 29.25 46.75 33.1675 46.75 38V41H43.25V38C43.25 35.1005 40.8995 32.75 38 32.75H36C33.1005 32.75 30.75 35.1005 30.75 38V41H27.25V38Z" fill="#5B00EF"/>
<path fill-rule="evenodd" clip-rule="evenodd" d="M37 24.75C35.7574 24.75 34.75 25.7574 34.75 27C34.75 28.2426 35.7574 29.25 37 29.25C38.2426 29.25 39.25 28.2426 39.25 27C39.25 25.7574 38.2426 24.75 37 24.75ZM31.25 27C31.25 23.8244 33.8244 21.25 37 21.25C40.1756 21.25 42.75 23.8244 42.75 27C42.75 30.1756 40.1756 32.75 37 32.75C33.8244 32.75 31.25 30.1756 31.25 27Z" fill="#5B00EF"/>
</svg>
