<svg width="31" height="30" viewBox="0 0 31 30" fill="none" xmlns="http://www.w3.org/2000/svg">
<path d="M6.36634 12.9833C8.76634 17.7 12.633 21.55 17.3497 23.9667L21.0163 20.3C21.4663 19.85 22.133 19.7 22.7163 19.9C24.583 20.5167 26.5997 20.85 28.6663 20.85C29.583 20.85 30.333 21.6 30.333 22.5167V28.3333C30.333 29.25 29.583 30 28.6663 30C13.0163 30 0.333008 17.3167 0.333008 1.66667C0.333008 0.75 1.08301 0 1.99967 0H7.83301C8.74967 0 9.49967 0.75 9.49967 1.66667C9.49967 3.75 9.83301 5.75 10.4497 7.61667C10.633 8.2 10.4997 8.85 10.033 9.31667L6.36634 12.9833Z" fill="#5B00EF"/>
</svg>
