<svg width="32" height="33" viewBox="0 0 32 33" fill="none" xmlns="http://www.w3.org/2000/svg">
<path d="M8.63535 28.8081H3.10651V11.0037H8.63535V28.8081ZM5.86795 8.57498C4.10001 8.57498 2.66602 7.11063 2.66602 5.34269C2.66602 4.49348 3.00336 3.67905 3.60384 3.07857C4.20432 2.47809 5.01875 2.14075 5.86795 2.14075C6.71716 2.14075 7.53159 2.47809 8.13207 3.07857C8.73255 3.67905 9.06989 4.49348 9.06989 5.34269C9.06989 7.11063 7.6353 8.57498 5.86795 8.57498ZM29.328 28.8081H23.8111V20.141C23.8111 18.0754 23.7694 15.4265 20.9365 15.4265C18.062 15.4265 17.6215 17.6707 17.6215 19.9922V28.8081H12.0986V11.0037H17.4012V13.4324H17.4786C18.2168 12.0335 20.0198 10.5572 22.7098 10.5572C28.3053 10.5572 29.334 14.2419 29.334 19.0279V28.8081H29.328Z" fill="white"/>
</svg>
