<svg width="207" height="40" viewBox="0 0 207 40" fill="none" xmlns="http://www.w3.org/2000/svg">
<path fill-rule="evenodd" clip-rule="evenodd" d="M11.7081 0L11.3151 0.519475L6.67175 6.65612L0.534899 11.3142L0.0160435 11.708L0.103923 12.3534L1.14492 19.9991L0.0891133 27.6448L0 28.2901L0.518184 28.6849L6.67369 33.3748L11.3582 39.4864L11.7519 40L12.3932 39.9133L20.0413 38.8798L27.6895 39.9133L28.3308 40L28.7244 39.4864L33.409 33.3748L39.5645 28.6849L40.0827 28.2901L39.9936 27.6448L38.9377 19.9991L39.9787 12.3534L40.0666 11.708L39.5478 11.3142L33.4109 6.65612L28.7676 0.519476L28.3745 9.31028e-07L27.7289 0.0869403L20.0413 1.12219L12.3537 0.0869393L11.7081 0ZM23.2743 33.1924L20.0413 36.4253L16.8083 33.1923L20.041 32.8144L23.2743 33.1924ZM12.7356 37.6153L18.0576 36.8961L14.6107 33.4492L14.5349 33.4581L14.4845 33.3914L9.36143 33.2132L12.7356 37.6153ZM11.134 28.9655L13.1343 31.6078L8.64764 31.4517L8.49153 26.9651L11.134 28.9655ZM6.63554 25.5601L6.64645 25.4761L3.1454 21.8254L2.38876 27.3047L6.8859 30.7311L6.70788 25.6148L6.63554 25.5601ZM7.35161 20.0422L6.93306 23.2674L3.79982 20.0003L6.90459 16.7641L7.35161 20.0422ZM6.59396 14.4861L6.6687 14.4286L6.84626 9.32518L2.40291 12.6978L3.1483 18.1724L6.60527 14.5691L6.59396 14.4861ZM11.1232 11.0023L8.45312 13.0561L8.60858 8.58773L13.0855 8.43205L11.1232 11.0023ZM14.4944 6.58661L14.5674 6.59436L18.0554 3.1064L12.7015 2.38542L9.34186 6.82556L14.4475 6.64803L14.4944 6.58661ZM20.0416 7.17496L16.7866 6.82973L20.0413 3.57496L23.2962 6.82978L20.0416 7.17496ZM19.1786 31.1678V27.7093H20.8225V31.1583L24.7631 31.619L27.1712 28.438L23.5236 24.7774L24.753 23.5523L28.3953 27.2076L31.5962 24.7844L31.082 20.822H28.0061V19.1781L31.0972 19.1781L31.633 15.2485L28.4717 12.8169L24.8666 16.422L23.6393 15.1948L27.233 11.6012L24.8009 8.41554L20.8225 8.8375V11.6977H19.1786V8.82878L15.2817 8.41547L12.8495 11.6013L16.1466 14.8983L14.9193 16.1256L11.6107 12.817L8.4496 15.2485L8.9792 19.1322H11.6979V20.8678H8.99463L8.48638 24.7844L11.6745 27.1978L15.969 22.9034L17.1962 24.1306L12.9018 28.4251L15.3195 31.6189L19.1786 31.1678ZM27.347 37.6153L22.0251 36.8961L25.4719 33.4493L25.5477 33.4581L25.5982 33.3914L30.7212 33.2132L27.347 37.6153ZM31.435 31.4517L26.9484 31.6078L28.9486 28.9655L31.5911 26.9651L31.435 31.4517ZM33.4471 25.5602L33.3748 25.6149L33.1968 30.7311L37.6939 27.3047L36.9373 21.8254L33.4362 25.4761L33.4471 25.5602ZM37.6798 12.6978L36.9344 18.1724L33.4774 14.569L33.4887 14.4862L33.414 14.4288L33.2364 9.32519L37.6798 12.6978ZM36.2828 20.0003L33.178 16.764L32.731 20.0423L33.1496 23.2675L36.2828 20.0003ZM31.4741 8.58772L31.6296 13.0562L28.9594 11.0024L26.9971 8.43204L31.4741 8.58772ZM30.7408 6.82555L25.6351 6.64802L25.5883 6.58668L25.5153 6.59442L22.0273 3.1064L27.3812 2.38542L30.7408 6.82555Z" fill="white"/>
<path fill-rule="evenodd" clip-rule="evenodd" d="M19.9521 9.89087L30.0172 19.9559L19.9521 30.0209L9.88713 19.9559L19.9521 9.89087ZM19.9521 13.0467L13.043 19.9559L19.9521 26.8651L26.8613 19.9559L19.9521 13.0467Z" fill="white"/>
<path d="M19.9521 15.8032L24.1033 19.9544L19.9521 24.1056L15.801 19.9544L19.9521 15.8032Z" fill="url(#paint0_linear_945_529722)"/>
<path d="M59.3254 29.4909H53.1625C52.9562 29.4909 52.8789 29.3877 52.982 29.2072L53.6009 28.2531V12.6782L52.982 11.7241C52.8789 11.5436 52.9562 11.4404 53.1625 11.4404H59.3254C70.001 11.4404 70.001 29.4909 59.3254 29.4909ZM58.8097 28.4991C65.2047 28.4991 65.4626 12.3826 58.8097 12.3826H56.9531V28.4991H58.8097Z" fill="white"/>
<path d="M68.6279 12.8845L70.5876 10.9247L72.5474 12.8845L70.5876 14.8442L68.6279 12.8845ZM68.9115 28.2531V17.8354L68.2926 16.8813C68.1895 16.7008 68.2668 16.5977 68.4731 16.5977H72.2637V28.2531L72.8826 29.2072C72.9857 29.3877 72.9084 29.4909 72.7021 29.4909H68.4731C68.2668 29.4909 68.1895 29.3877 68.2926 29.2072L68.9115 28.2531Z" fill="white"/>
<path d="M84.9999 29.4909H81.2094V26.0871C80.3326 28.6657 78.8886 29.7487 76.9288 29.7487C75.1238 29.7487 73.8345 28.4594 73.8345 26.4996C73.8345 24.1015 75.9747 21.1877 81.2094 20.5688C81.2094 17.5776 80.0481 17.5895 78.4751 17.5895H77.4833L74.4533 20.3367H74.1955V16.5977H78.3213C82.1892 16.5977 84.5616 16.804 84.5616 21.394V28.2531L85.1804 29.2072C85.2836 29.3877 85.2062 29.4909 84.9999 29.4909ZM81.2094 24.7799L81.2025 21.5566C76.3805 22.4333 75.8974 27.5311 78.7854 27.5311C79.6106 27.5311 80.7452 26.2755 81.2094 24.7799Z" fill="white"/>
<path d="M86.6648 28.2531V17.8354L86.0459 16.8813C85.9427 16.7008 86.0201 16.5977 86.2264 16.5977H90.017V19.821C90.8937 17.6034 92.9308 16.3398 94.3749 16.3398C96.3088 16.3398 97.0051 17.2681 97.1856 19.8983C98.0365 17.6292 100.099 16.3398 101.569 16.3398C103.89 16.3398 104.432 17.6549 104.432 21.7034V28.2531L105.05 29.2072C105.154 29.3877 105.076 29.4909 104.87 29.4909H100.641C100.435 29.4909 100.357 29.3877 100.46 29.2072L101.079 28.2531V23.2764C101.079 20.8524 101.157 18.9185 99.3516 18.9185C98.6038 18.9185 97.7529 20.0035 97.2371 21.0607C97.2629 21.4217 97.2371 21.2908 97.2371 21.7034V28.2531L97.856 29.2072C97.9592 29.3877 97.8818 29.4909 97.6755 29.4909H93.4466C93.2403 29.4909 93.1629 29.3877 93.2661 29.2072L93.8849 28.2531V23.2764C93.8849 20.8524 93.9623 18.9185 92.1572 18.9185C91.3837 18.9185 90.5327 19.8537 90.017 20.9367V28.2531L90.6359 29.2072C90.739 29.3877 90.6616 29.4909 90.4554 29.4909H86.2264C86.0201 29.4909 85.9427 29.3877 86.0459 29.2072L86.6648 28.2531Z" fill="white"/>
<path d="M112.206 16.3398C116.074 16.3398 118.394 19.1763 118.394 23.0443C118.394 26.9122 116.074 29.7487 112.206 29.7487C108.338 29.7487 106.017 26.9122 106.017 23.0443C106.017 19.1763 108.338 16.3398 112.206 16.3398ZM112.206 28.747C113.779 28.747 115.042 27.4537 115.042 23.0443C115.042 18.377 113.779 17.3415 112.206 17.3415C110.633 17.3415 109.369 18.377 109.369 23.0443C109.369 27.4537 110.633 28.747 112.206 28.747Z" fill="white"/>
<path d="M119.955 28.2531V17.8354L119.336 16.8813C119.233 16.7008 119.311 16.5977 119.517 16.5977H123.308V19.8983C124.287 17.6549 126.144 16.3398 127.794 16.3398C130.167 16.3398 131.121 17.6549 131.121 21.7034V28.2531L131.74 29.2072C131.843 29.3877 131.765 29.4909 131.559 29.4909H127.33C127.124 29.4909 127.047 29.3877 127.15 29.2072L127.769 28.2531V23.2764C127.769 20.8524 127.872 18.9185 125.835 18.9185C124.958 18.9185 123.926 19.9777 123.308 21.0607V28.2531L123.926 29.2072C124.03 29.3877 123.952 29.4909 123.746 29.4909H119.517C119.311 29.4909 119.233 29.3877 119.336 29.2072L119.955 28.2531Z" fill="white"/>
<path d="M140.962 16.7782V11.3889L140.343 10.4348C140.24 10.2543 140.317 10.1511 140.524 10.1511H144.314V28.2531L144.933 29.2072C145.036 29.3877 144.959 29.4909 144.753 29.4909H140.962V26.4996C140.111 28.7688 138.538 29.7745 137.094 29.7745C134.851 29.7745 132.685 27.6342 132.685 23.3537C132.685 19.2795 134.49 16.3398 138.899 16.3398C139.647 16.3398 140.369 16.4946 140.962 16.7782ZM140.962 25.0278L140.957 18.8292C140.467 18.004 139.699 17.3415 138.899 17.3415C135.005 17.3415 135.031 27.789 138.899 27.789C139.75 27.789 140.575 26.5492 140.962 25.0278Z" fill="white"/>
<path d="M154.936 12.6782V19.821H161.821V12.6782L161.202 11.7241C161.099 11.5436 161.176 11.4404 161.383 11.4404H165.612C165.818 11.4404 165.895 11.5436 165.792 11.7241L165.173 12.6782V28.2531L165.792 29.2072C165.895 29.3877 165.818 29.4909 165.612 29.4909H161.383C161.176 29.4909 161.099 29.3877 161.202 29.2072L161.821 28.2531V20.8128H154.936V28.2531L155.555 29.2072C155.658 29.3877 155.581 29.4909 155.374 29.4909H151.145C150.939 29.4909 150.862 29.3877 150.965 29.2072L151.584 28.2531V12.6782L150.965 11.7241C150.862 11.5436 150.939 11.4404 151.145 11.4404H155.374C155.581 11.4404 155.658 11.5436 155.555 11.7241L154.936 12.6782Z" fill="white"/>
<path d="M177.157 19.573H170.339C169.204 22.6932 169.928 27.3764 174.079 27.3764C175.549 27.3764 176.658 26.938 177.56 25.5198L177.767 25.6487C176.89 27.8405 175.291 29.7487 172.687 29.7487C169.077 29.7487 166.756 26.9122 166.756 23.0443C166.756 19.1763 169.077 16.3398 172.687 16.3398C174.904 16.3398 176.537 17.5895 177.157 19.573ZM170.598 18.5832H174.234C174.131 17.7065 173.314 17.3415 172.694 17.3415C171.95 17.3415 170.959 17.7135 170.598 18.5832Z" fill="white"/>
<path d="M189.656 29.4909H185.865V26.0871C184.989 28.6657 183.545 29.7487 181.585 29.7487C179.78 29.7487 178.491 28.4594 178.491 26.4996C178.491 24.1015 180.631 21.1877 185.865 20.5688C185.865 17.5776 184.705 16.9845 183.132 16.9845H182.745L179.109 20.3367H178.852V16.5977H182.977C186.845 16.5977 189.218 16.804 189.218 21.394V28.2531L189.837 29.2072C189.94 29.3877 189.862 29.4909 189.656 29.4909ZM185.865 25.1072V20.9556C181.043 21.8323 180.553 27.5311 183.442 27.5311C184.267 27.5311 185.401 26.6028 185.865 25.1072Z" fill="white"/>
<path d="M191.321 28.2531V17.8354L190.702 16.8813C190.599 16.7008 190.676 16.5977 190.883 16.5977H194.673V20.4141C195.524 18.4801 197.2 16.7266 199.418 16.5977V20.3367H199.16L196.373 18.9532C195.754 19.4947 195.008 20.8296 194.673 21.6806V28.2531L195.292 29.2072C195.395 29.3877 195.318 29.4909 195.111 29.4909H190.883C190.676 29.4909 190.599 29.3877 190.702 29.2072L191.321 28.2531Z" fill="white"/>
<path d="M199.934 16.9845V16.5977L203.956 12.3945H204.343V15.9778H206.922V16.9845H204.343V23.921C204.343 26.3449 204.549 27.4022 205.606 27.4022C205.864 27.4022 206.303 27.3764 206.793 26.8091L206.947 26.9896C206.071 29.0525 205.039 29.7487 203.724 29.7487C202.048 29.7487 200.991 28.8204 200.991 25.8034V16.9845H199.934Z" fill="white"/>
<path d="M189.656 29.4909H185.865V26.0871C184.989 28.6657 183.545 29.7487 181.585 29.7487C179.78 29.7487 178.491 28.4594 178.491 26.4996C178.491 24.1015 180.631 21.1877 185.865 20.5688C185.865 17.5776 184.704 17.5895 183.131 17.5895H182.139L179.109 20.3367H178.852V16.5977H182.977C186.845 16.5977 189.218 16.804 189.218 21.394V28.2531L189.837 29.2072C189.94 29.3877 189.862 29.4909 189.656 29.4909ZM185.865 24.7799L185.859 21.5566C181.037 22.4333 180.553 27.5311 183.442 27.5311C184.267 27.5311 185.401 26.2755 185.865 24.7799Z" fill="white"/>
<defs>
<linearGradient id="paint0_linear_945_529722" x1="14.8644" y1="19.0501" x2="17.1507" y2="22.8714" gradientUnits="userSpaceOnUse">
<stop stop-color="#F6C936"/>
<stop offset="1" stop-color="#E94B2E"/>
</linearGradient>
</defs>
</svg>
