<svg width="2282" height="2282" viewBox="0 0 2282 2282" fill="none" xmlns="http://www.w3.org/2000/svg">
<path opacity="0.3" d="M378.97 1902.1L668.318 2281.5L1142.03 2219.98L1613.18 2281.5L1902.53 1902.1L2281.5 1612.43L2217.48 1140.75L2281.5 666.506L1902.53 376.832L1613.18 0.000185714L1142.03 61.5238L668.319 0.000103112L378.97 379.396L0.000385104 669.069L64.0155 1140.75L0.000302632 1612.43L378.97 1902.1Z" fill="url(#paint0_linear_1052_78583)"/>
<path opacity="0.5" d="M499.428 1781.71L743.023 2101.12L1141.83 2049.32L1538.48 2101.12L1782.07 1781.71L2101.12 1537.85L2047.22 1140.75L2101.12 741.497L1782.07 497.629L1538.48 180.384L1141.83 232.179L743.023 180.384L499.428 499.787L180.384 743.655L234.276 1140.75L180.384 1537.85L499.428 1781.71Z" fill="url(#paint1_linear_1052_78583)"/>
<path opacity="0.8" d="M625.341 1655.87L821.11 1912.56L1141.62 1870.94L1460.39 1912.56L1656.16 1655.87L1912.56 1459.88L1869.25 1140.75L1912.56 819.884L1656.16 623.896L1460.39 368.937L1141.62 410.563L821.11 368.937L625.341 625.63L368.936 821.619L412.248 1140.75L368.936 1459.88L625.341 1655.87Z" fill="url(#paint2_linear_1052_78583)"/>
<path opacity="0.8" d="M757.971 1523.32L903.363 1713.95L1141.39 1683.04L1378.14 1713.95L1523.53 1523.32L1713.95 1377.76L1681.79 1140.75L1713.95 902.453L1523.53 756.898L1378.14 567.547L1141.39 598.462L903.363 567.547L757.971 758.186L567.547 903.741L599.713 1140.75L567.547 1377.76L757.971 1523.32Z" fill="url(#paint3_linear_1052_78583)"/>
<path d="M868.634 1412.71L971.991 1548.23L1141.2 1526.26L1309.5 1548.23L1412.86 1412.71L1548.23 1309.24L1525.36 1140.75L1548.23 971.347L1412.86 867.873L1309.5 733.266L1141.2 755.243L971.991 733.266L868.634 868.789L733.263 972.262L756.13 1140.75L733.263 1309.24L868.634 1412.71Z" fill="url(#paint4_linear_1052_78583)"/>
<defs>
<linearGradient id="paint0_linear_1052_78583" x1="266.49" y1="691.364" x2="909.458" y2="37.0828" gradientUnits="userSpaceOnUse">
<stop stop-color="#9D33F0"/>
<stop offset="1" stop-color="#5B00EF"/>
</linearGradient>
<linearGradient id="paint1_linear_1052_78583" x1="404.734" y1="762.425" x2="946.032" y2="211.603" gradientUnits="userSpaceOnUse">
<stop stop-color="#9D33F0"/>
<stop offset="1" stop-color="#5B00EF"/>
</linearGradient>
<linearGradient id="paint2_linear_1052_78583" x1="549.239" y1="836.703" x2="984.261" y2="394.027" gradientUnits="userSpaceOnUse">
<stop stop-color="#9D33F0"/>
<stop offset="1" stop-color="#5B00EF"/>
</linearGradient>
<linearGradient id="paint3_linear_1052_78583" x1="701.452" y1="914.943" x2="1024.53" y2="586.181" gradientUnits="userSpaceOnUse">
<stop stop-color="#9D33F0"/>
<stop offset="1" stop-color="#5B00EF"/>
</linearGradient>
<linearGradient id="paint4_linear_1052_78583" x1="828.455" y1="980.226" x2="1058.13" y2="746.513" gradientUnits="userSpaceOnUse">
<stop stop-color="#9D33F0"/>
<stop offset="1" stop-color="#5B00EF"/>
</linearGradient>
</defs>
</svg>
