<svg width="113" height="113" viewBox="0 0 113 113" fill="none" xmlns="http://www.w3.org/2000/svg">
<path fill-rule="evenodd" clip-rule="evenodd" d="M32.9806 0L31.8733 1.4633L18.7936 18.7496L1.50675 31.8708L0.0451927 32.9802L0.29274 34.7983L3.22512 56.3353L0.251022 77.8724L0 79.6902L1.45967 80.8023L18.7991 94.0133L31.9949 111.229L33.1038 112.676L34.9102 112.431L56.4543 109.52L77.9983 112.431L79.8047 112.676L80.9137 111.229L94.1095 94.0133L111.449 80.8023L112.909 79.6902L112.658 77.8724L109.683 56.3353L112.616 34.7983L112.863 32.9802L111.402 31.8708L94.115 18.7496L81.0352 1.4633L79.928 0L78.1094 0.244899L56.4543 3.16109L34.7991 0.244899L32.9806 0ZM65.5614 93.4989L56.4543 102.606L47.3472 93.4989L56.4543 92.4343L65.5614 93.4989ZM41.1567 94.2226L50.8663 103.932L35.8749 105.958L26.3701 93.5579L40.8005 94.0598L40.9427 94.2476L41.1567 94.2226ZM18.8954 72.1546L19.3968 86.5662L6.72887 76.9144L8.86027 61.4798L18.7218 71.7627L18.691 71.9999L18.8954 72.1546ZM18.6058 41.0399L8.86839 51.1895L6.76873 35.7684L19.2851 26.268L18.785 40.6434L18.5739 40.8058L18.6058 41.0399ZM40.6964 18.7267L26.3151 19.2268L35.7788 6.71947L50.8599 8.75037L41.0347 18.5756L40.8284 18.5537L40.6964 18.7267ZM65.6227 19.2386L56.4543 10.0701L47.2858 19.2386L56.4543 20.211L65.6227 19.2386ZM24.2494 24.1906L36.8597 23.7521L31.3323 30.9923L23.8115 36.7771L24.2494 24.1906ZM10.7037 56.3385L19.4489 47.2231L20.7081 56.4566L19.5292 65.5411L10.7037 56.3385ZM24.3594 88.596L23.9197 75.9581L31.3626 81.5925L36.9971 89.0355L24.3594 88.596ZM54.0247 87.796V78.0541H58.6553V87.7692L69.7558 89.0669L76.5383 80.1073L66.2627 69.7952L69.7259 66.3442L79.9863 76.6412L89.004 69.8148L87.5555 58.6533H78.8898V54.0227H87.5981L89.1076 42.9532L80.2019 36.1031L70.0461 46.2589L66.589 42.8019L76.7125 32.6783L69.8622 23.7054L58.6553 24.894V32.9512H54.0247V24.8698L43.0463 23.7054L36.1956 32.6789L45.4836 41.9669L42.0265 45.424L32.7061 36.1036L23.801 42.9532L25.2928 53.8932H32.9523V58.7823H25.3363L23.9046 69.8148L32.886 76.6138L44.9836 64.5162L48.4406 67.9733L36.3428 80.0711L43.1528 89.0669L54.0247 87.796ZM77.0337 105.958L62.0422 103.932L71.7518 94.2226L71.9659 94.2476L72.108 94.0598L86.5385 93.5579L77.0337 105.958ZM88.5491 88.596L75.9115 89.0355L81.5459 81.5925L88.9888 75.9581L88.5491 88.596ZM94.2176 71.9999L94.0132 72.1546L93.5117 86.5662L106.18 76.9144L104.048 61.4798L94.1868 71.7627L94.2176 71.9999ZM106.14 35.7684L104.04 51.1895L94.3028 41.0399L94.3347 40.8058L94.1236 40.6434L93.6234 26.268L106.14 35.7684ZM102.205 56.3385L93.4596 47.2231L92.2005 56.4566L93.3794 65.5411L102.205 56.3385ZM88.6591 24.1906L89.097 36.7771L81.5763 30.9923L76.0488 23.7521L88.6591 24.1906ZM86.5935 19.2268L72.2122 18.7267L72.0802 18.5537L71.8739 18.5756L62.0486 8.75037L77.1298 6.71947L86.5935 19.2268Z" fill="white"/>
<rect x="56.2129" y="32.3047" width="33.8099" height="33.8099" transform="rotate(45 56.2129 32.3047)" stroke="white" stroke-width="6.28591"/>
<rect x="56.2129" y="44.5186" width="16.537" height="16.537" transform="rotate(45 56.2129 44.5186)" fill="url(#paint0_linear_701_1757)"/>
<defs>
<linearGradient id="paint0_linear_701_1757" x1="52.5462" y1="61.12" x2="64.7116" y2="64.1772" gradientUnits="userSpaceOnUse">
<stop stop-color="#F6C936"/>
<stop offset="1" stop-color="#E94B2E"/>
</linearGradient>
</defs>
</svg>
