<svg width="113" height="113" viewBox="0 0 113 113" fill="none" xmlns="http://www.w3.org/2000/svg">
<path fill-rule="evenodd" clip-rule="evenodd" d="M32.9801 0L31.8729 1.4633L18.7931 18.7496L1.50626 31.8708L0.0447044 32.9802L0.292252 34.7983L3.22463 56.3353L0.250534 77.8724L-0.000488281 79.6902L1.45918 80.8023L18.7986 94.0133L31.9944 111.229L33.1033 112.676L34.9097 112.431L56.4538 109.52L77.9978 112.431L79.8042 112.676L80.9131 111.229L94.1089 94.0133L111.448 80.8023L112.908 79.6902L112.657 77.8724L109.683 56.3353L112.615 34.7983L112.863 32.9802L111.401 31.8708L94.1144 18.7496L81.0347 1.46331L79.9274 2.6226e-06L78.1089 0.244901L56.4538 3.16108L34.7986 0.244899L32.9801 0ZM65.5609 93.4989L56.4537 102.606L47.3467 93.499L56.4539 92.4343L65.5609 93.4989ZM35.8744 105.958L50.8658 103.932L41.1562 94.2227L40.9428 94.2476L40.8008 94.06L26.3696 93.558L35.8744 105.958ZM31.3628 81.5924L36.9973 89.0357L24.359 88.5961L23.9192 75.9576L31.3628 81.5924ZM18.6911 71.9999L18.7218 71.7634L8.85977 61.4798L6.72838 76.9144L19.3963 86.5662L18.8949 72.1541L18.6911 71.9999ZM20.7082 56.4566L19.5292 65.5418L10.7032 56.3386L19.449 47.2226L20.7082 56.4566ZM18.574 40.8058L18.7845 40.6439L19.2847 26.268L6.76824 35.7684L8.86792 51.1896L18.6059 41.0394L18.574 40.8058ZM31.3324 30.9922L23.811 36.7775L24.2489 24.1907L36.8598 23.7522L31.3324 30.9922ZM40.8285 18.5537L41.0344 18.5755L50.8595 8.75038L35.7783 6.71947L26.3145 19.2269L40.6964 18.7268L40.8285 18.5537ZM56.4535 20.2109L47.2855 19.2385L56.4538 10.0703L65.622 19.2385L56.4535 20.2109ZM54.0236 87.7961V78.0541H58.6542V87.7692L69.7545 89.0669L76.5376 80.1065L66.2629 69.7952L69.7261 66.3442L79.9858 76.6405L89.0027 69.8147L87.5542 58.6533H78.8897V54.0227L87.5968 54.0227L89.1063 42.9531L80.2014 36.1037L70.046 46.2591L66.5889 42.802L76.7119 32.6791L69.8609 23.7053L58.6542 24.8939V32.9512H54.0236V24.8696L43.0465 23.7054L36.1952 32.6795L45.4827 41.9669L42.0256 45.424L32.7056 36.104L23.8011 42.9532L25.293 53.8933H32.9512V58.7823H25.3364L23.9047 69.8147L32.8854 76.6132L44.9823 64.5163L48.4394 67.9734L36.3424 80.0703L43.1529 89.0669L54.0236 87.7961ZM77.0331 105.958L62.0417 103.932L71.7513 94.2226L71.9646 94.2476L72.1066 94.0599L86.5379 93.558L77.0331 105.958ZM88.5485 88.596L75.91 89.0356L81.5447 81.5924L88.9883 75.9575L88.5485 88.596ZM94.2163 71.9999L94.0126 72.154L93.5112 86.5662L106.179 76.9144L104.048 61.4798L94.1856 71.7634L94.2163 71.9999ZM106.139 35.7684L104.04 51.1896L94.3016 41.0393L94.3334 40.8057L94.123 40.6439L93.6228 26.268L106.139 35.7684ZM102.204 56.3386L93.4584 47.2225L92.1992 56.4565L93.3782 65.5419L102.204 56.3386ZM88.6586 24.1907L89.0965 36.7776L81.575 30.9922L76.0476 23.7521L88.6586 24.1907ZM86.593 19.2268L72.211 18.7267L72.0789 18.5537L71.8731 18.5755L62.048 8.75038L77.1292 6.71948L86.593 19.2268Z" fill="#5B00EF"/>
<rect x="56.2134" y="32.3048" width="33.8099" height="33.8099" transform="rotate(45 56.2134 32.3048)" stroke="#5B00EF" stroke-width="6.28591"/>
<rect x="56.2134" y="44.5186" width="16.537" height="16.537" transform="rotate(45 56.2134 44.5186)" fill="url(#paint0_linear_701_1675)"/>
<defs>
<linearGradient id="paint0_linear_701_1675" x1="52.5467" y1="61.12" x2="64.7121" y2="64.1772" gradientUnits="userSpaceOnUse">
<stop stop-color="#F6C936"/>
<stop offset="1" stop-color="#E94B2E"/>
</linearGradient>
</defs>
</svg>
