<svg width="368" height="360" viewBox="0 0 368 360" fill="none" xmlns="http://www.w3.org/2000/svg">
<path d="M25.491 267.968H0.901682C0.0786084 267.968 -0.230044 267.556 0.181493 266.836L2.65071 263.029V200.887L0.181493 197.08C-0.230044 196.36 0.0786084 195.949 0.901682 195.949H25.491C68.0851 195.949 68.0851 267.968 25.491 267.968ZM23.4333 263.234C48.9486 263.234 49.9775 200.098 23.4333 200.098H16.0257V263.234H23.4333Z" fill="white"/>
<path d="M62.6065 201.71L70.4257 193.891L78.2449 201.71L70.4257 209.529L62.6065 201.71ZM63.7382 263.029V221.464L61.269 217.657C60.8575 216.937 61.1661 216.525 61.9892 216.525H77.1132V263.029L79.5824 266.836C79.9939 267.556 79.6853 267.968 78.8622 267.968H61.9892C61.1661 267.968 60.8575 267.556 61.269 266.836L63.7382 263.029Z" fill="white"/>
<path d="M127.929 267.968H112.805V254.387C109.307 264.675 103.546 268.996 95.7264 268.996C88.5245 268.996 83.3803 263.852 83.3803 256.033C83.3803 246.465 91.9197 234.839 112.805 232.37C112.805 220.435 108.172 221.328 101.896 221.328H97.0476L85.8495 231.444H84.8207V216.525H101.282C116.715 216.525 126.18 217.348 126.18 235.662V263.029L128.649 266.836C129.061 267.556 128.752 267.968 127.929 267.968ZM112.805 249.171L112.778 236.311C93.5386 239.809 91.611 260.148 103.134 260.148C106.426 260.148 110.953 255.139 112.805 249.171Z" fill="white"/>
<path d="M134.572 263.029V221.464L132.102 217.657C131.691 216.937 132 216.525 132.823 216.525H147.947V229.386C151.445 220.538 159.573 215.497 165.334 215.497C173.05 215.497 175.828 219.2 176.548 229.695C179.944 220.641 188.174 215.497 194.039 215.497C203.298 215.497 205.459 220.744 205.459 236.896V263.029L207.928 266.836C208.34 267.556 208.031 267.968 207.208 267.968H190.335C189.512 267.968 189.203 267.556 189.615 266.836L192.084 263.029V243.172C192.084 233.501 192.393 225.785 185.191 225.785C182.207 225.785 178.812 230.114 176.754 234.332C176.857 235.773 176.754 235.25 176.754 236.896V263.029L179.223 266.836C179.635 267.556 179.326 267.968 178.503 267.968H161.63C160.807 267.968 160.498 267.556 160.91 266.836L163.379 263.029V243.172C163.379 233.501 163.688 225.785 156.486 225.785C153.399 225.785 150.004 229.516 147.947 233.838V263.029L150.416 266.836C150.827 267.556 150.519 267.968 149.696 267.968H132.823C132 267.968 131.691 267.556 132.102 266.836L134.572 263.029Z" fill="white"/>
<path d="M236.477 215.497C251.91 215.497 261.169 226.814 261.169 242.246C261.169 257.679 251.91 268.996 236.477 268.996C221.044 268.996 211.785 257.679 211.785 242.246C211.785 226.814 221.044 215.497 236.477 215.497ZM236.477 263.234C242.753 263.234 247.794 259.84 247.794 242.246C247.794 223.624 242.753 221.328 236.477 221.328C230.201 221.328 225.16 223.624 225.16 242.246C225.16 259.84 230.201 263.234 236.477 263.234Z" fill="white"/>
<path d="M267.397 263.029V221.464L264.928 217.657C264.516 216.937 264.825 216.525 265.648 216.525H280.772V229.695C284.681 220.744 292.089 215.497 298.674 215.497C308.139 215.497 311.946 220.744 311.946 236.896V263.029L314.415 266.836C314.826 267.556 314.518 267.968 313.695 267.968H296.822C295.999 267.968 295.69 267.556 296.102 266.836L298.571 263.029V243.172C298.571 233.501 298.982 225.785 290.854 225.785C287.356 225.785 283.241 230.011 280.772 234.332V263.029L283.241 266.836C283.653 267.556 283.344 267.968 282.521 267.968H265.648C264.825 267.968 264.516 267.556 264.928 266.836L267.397 263.029Z" fill="white"/>
<path d="M351.211 217.246V195.743L348.742 191.936C348.331 191.216 348.639 190.804 349.462 190.804H364.586V263.029L367.056 266.836C367.467 267.556 367.158 267.968 366.335 267.968H351.211V256.033C347.816 265.087 341.54 269.099 335.779 269.099C326.828 269.099 318.185 260.56 318.185 243.481C318.185 227.225 325.387 215.497 342.981 215.497C345.964 215.497 348.845 216.114 351.211 217.246ZM351.211 250.161L351.192 225.429C349.238 222.137 346.17 221.464 342.981 221.464C327.445 221.464 327.548 261.177 342.981 261.177C346.376 261.177 349.668 256.231 351.211 250.161Z" fill="white"/>
<path d="M87.0257 291.9V320.399H114.496V291.9L112.027 288.093C111.615 287.373 111.924 286.962 112.747 286.962H129.62C130.443 286.962 130.751 287.373 130.34 288.093L127.871 291.9V354.042L130.34 357.849C130.751 358.569 130.443 358.981 129.62 358.981H112.747C111.924 358.981 111.615 358.569 112.027 357.849L114.496 354.042V324.356H87.0257V354.042L89.4949 357.849C89.9064 358.569 89.5978 358.981 88.7747 358.981H71.9017C71.0786 358.981 70.77 358.569 71.1815 357.849L73.6507 354.042V291.9L71.1815 288.093C70.77 287.373 71.0786 286.962 71.9017 286.962H88.7747C89.5978 286.962 89.9064 287.373 89.4949 288.093L87.0257 291.9Z" fill="white"/>
<path d="M175.686 319.41H148.481C143.954 331.859 146.84 350.544 163.404 350.544C169.269 350.544 173.693 348.795 177.294 343.136L178.117 343.651C174.619 352.396 168.24 360.009 157.849 360.009C143.445 360.009 134.185 348.692 134.185 333.259C134.185 317.827 143.445 306.51 157.849 306.51C166.697 306.51 173.213 311.495 175.686 319.41ZM149.515 315.46H164.022C163.61 311.962 160.352 310.506 157.879 310.506C154.911 310.506 150.954 311.99 149.515 315.46Z" fill="white"/>
<path d="M225.554 358.981H210.43V345.4C206.932 355.688 201.171 360.009 193.352 360.009C186.15 360.009 181.006 354.865 181.006 347.046C181.006 337.478 189.545 325.852 210.43 323.383C210.43 311.448 205.801 309.082 199.525 309.082H197.981L183.475 322.457H182.446V307.538H198.907C214.34 307.538 223.805 308.361 223.805 326.675V354.042L226.275 357.849C226.686 358.569 226.378 358.981 225.554 358.981ZM210.43 341.49V324.926C191.191 328.424 189.236 351.161 200.759 351.161C204.052 351.161 208.579 347.457 210.43 341.49Z" fill="white"/>
<path d="M232.197 354.042V312.477L229.728 308.67C229.316 307.95 229.625 307.538 230.448 307.538H245.572V322.765C248.967 315.049 255.655 308.053 264.503 307.538V322.457H263.474L252.355 316.936C249.885 319.097 246.909 324.423 245.572 327.818V354.042L248.041 357.849C248.453 358.569 248.144 358.981 247.321 358.981H230.448C229.625 358.981 229.316 358.569 229.728 357.849L232.197 354.042Z" fill="white"/>
<path d="M266.56 309.082V307.538L282.61 290.768H284.154V305.065H294.442V309.082H284.154V336.758C284.154 346.429 284.977 350.647 289.195 350.647C290.224 350.647 291.973 350.544 293.928 348.281L294.545 349.001C291.047 357.231 286.931 360.009 281.684 360.009C274.997 360.009 270.779 356.306 270.779 344.268V309.082H266.56Z" fill="white"/>
<path d="M225.554 358.981H210.43V345.4C206.932 355.688 201.171 360.009 193.352 360.009C186.15 360.009 181.006 354.865 181.006 347.046C181.006 337.478 189.545 325.852 210.43 323.383C210.43 311.448 205.797 311.495 199.521 311.495H195.564L183.475 322.457H182.446V307.538H198.907C214.34 307.538 223.805 308.361 223.805 326.675V354.042L226.275 357.849C226.686 358.569 226.378 358.981 225.554 358.981ZM210.431 340.184L210.403 327.324C191.164 330.822 189.236 351.161 200.759 351.161C204.052 351.161 208.579 346.152 210.431 340.184Z" fill="white"/>
<path fill-rule="evenodd" clip-rule="evenodd" d="M218.101 1.92677L216.643 3.05176e-05L214.249 0.322495L182.672 4.57472L182.706 4.82733L152.3 0.73262L150.145 0.442413L148.833 2.17647L130.105 26.9269L105.354 45.7138L103.622 47.0284L103.915 49.183L108.114 80.0188L103.856 110.855L103.558 113.009L105.288 114.327L130.111 133.24L149.003 157.887L150.317 159.601L152.458 159.312L182.704 155.225L182.67 155.476L214.09 159.722L216.469 160.043L217.929 158.139L236.787 133.536L261.567 114.656L263.489 113.192L263.158 110.798L258.908 80.0184L263.099 49.2388L263.424 46.8448L261.5 45.3841L236.794 26.6317L218.101 1.92677ZM183.302 146.296L196.682 132.915L183.303 131.351L169.922 132.916L183.302 146.296ZM176.226 148.583L161.538 133.896L161.251 133.929L161.059 133.676L139.249 132.917L153.601 151.641L176.226 148.583ZM130.639 124.278L129.882 102.499L129.608 102.291L129.649 101.974L114.747 86.4353L111.532 109.72L130.639 124.278ZM114.758 73.6006L129.484 58.251L129.441 57.9358L129.724 57.7178L130.48 35.9941L111.59 50.3325L114.758 73.6006ZM139.177 27.2823L160.909 26.5267L161.088 26.2919L161.366 26.3214L176.217 11.4697L153.461 8.40521L139.177 27.2823ZM183.302 13.749L196.772 27.2191L183.301 28.6479L169.832 27.2193L183.302 13.749ZM155.713 33.3327L137.176 33.9773L136.532 52.4816L147.584 43.9806L155.713 33.3327ZM130.626 66.625L117.772 80.0229L130.742 93.5476L132.476 80.1903L130.626 66.625ZM136.686 107.65L137.333 126.225L155.908 126.871L147.627 115.932L136.686 107.65ZM179.827 116.167L179.827 125.091L164.244 126.913L154.371 113.871L165.951 102.291L179.827 116.167ZM186.449 115.803V125.053L202.36 126.913L212.194 113.923L200.282 101.969L186.449 115.803ZM204.964 97.287L216.863 109.228L229.936 99.3317L227.86 83.3325H218.919L204.964 97.287ZM219.277 76.7112L205.326 62.7603L217.173 50.9132L230.084 60.8438L227.92 76.7112H219.277ZM200.644 58.0783L212.444 46.2782L202.512 33.2688L186.449 34.9725L186.449 43.8824L200.644 58.0783ZM179.827 43.5182V34.9379L164.092 33.269L154.16 46.2785L165.613 57.732L179.827 43.5182ZM160.931 62.414L146.634 76.7114H138.684L136.52 60.8441L149.431 50.9134L160.931 62.414ZM146.993 83.3328L161.269 97.6086L149.689 109.189L136.668 99.3319L138.745 83.3328H146.993ZM190.746 148.215L212.82 151.198L226.819 132.935L205.545 133.675L205.353 133.929L205.066 133.895L190.746 148.215ZM210.697 126.871L229.271 126.225L229.917 107.65L218.977 115.932L210.697 126.871ZM236.722 102.499L236.997 102.291L236.955 101.973L251.491 86.8159L254.629 109.537L235.983 123.743L236.722 102.499ZM251.48 73.2192L254.572 50.5161L236.142 36.5277L236.879 57.7172L237.163 57.9355L237.12 58.2512L251.48 73.2192ZM235.978 66.6252L248.832 80.0227L235.862 93.5469L234.129 80.1901L235.978 66.6252ZM230.072 52.4809L229.428 33.977L210.891 33.3325L219.021 43.9804L230.072 52.4809ZM205.695 26.5264L226.893 27.2635L212.959 8.8476L190.755 11.8377L205.238 26.3212L205.516 26.2917L205.695 26.5264ZM155.184 79.8425L182.956 52.0703L210.728 79.8425L182.956 107.615L155.184 79.8425Z" fill="white"/>
<rect x="182.956" y="63.1562" width="23.5978" height="23.5978" transform="rotate(45 182.956 63.1562)" fill="url(#paint0_linear_701_2096)"/>
<defs>
<linearGradient id="paint0_linear_701_2096" x1="177.724" y1="86.8459" x2="195.084" y2="91.2085" gradientUnits="userSpaceOnUse">
<stop stop-color="#F6C936"/>
<stop offset="1" stop-color="#E94B2E"/>
</linearGradient>
</defs>
</svg>
