<svg width="460" height="443" viewBox="0 0 460 443" fill="none" xmlns="http://www.w3.org/2000/svg">
<path d="M31.8769 327.901H1.12757C0.0983008 327.901 -0.287674 327.386 0.226959 326.485L3.31475 321.725V244.015L0.226959 239.255C-0.287674 238.355 0.0983008 237.84 1.12757 237.84H31.8769C85.1413 237.84 85.1413 327.901 31.8769 327.901ZM29.3037 321.982C61.2109 321.982 62.4975 243.029 29.3037 243.029H20.0403V321.982H29.3037Z" fill="#4200AC"/>
<path d="M78.2903 245.045L88.0683 235.267L97.8463 245.045L88.0683 254.823L78.2903 245.045ZM79.7055 321.725V269.747L76.6178 264.987C76.1031 264.086 76.4891 263.572 77.5184 263.572H96.4311V321.725L99.5189 326.485C100.034 327.386 99.6476 327.901 98.6183 327.901H77.5184C76.4891 327.901 76.1031 327.386 76.6178 326.485L79.7055 321.725Z" fill="#4200AC"/>
<path d="M159.977 327.901H141.064V310.918C136.69 323.784 129.485 329.187 119.707 329.187C110.701 329.187 104.268 322.754 104.268 312.976C104.268 301.011 114.947 286.473 141.064 283.385C141.064 268.461 135.27 269.577 127.422 269.577H121.359L107.356 282.227H106.069V263.572H126.655C145.953 263.572 157.79 264.601 157.79 287.502V321.725L160.878 326.485C161.392 327.386 161.006 327.901 159.977 327.901ZM141.064 304.396L141.03 288.313C116.971 292.688 114.561 318.123 128.971 318.123C133.088 318.123 138.749 311.858 141.064 304.396Z" fill="#4200AC"/>
<path d="M168.284 321.725V269.747L165.196 264.987C164.681 264.086 165.067 263.572 166.096 263.572H185.009V279.654C189.384 268.589 199.548 262.285 206.752 262.285C216.402 262.285 219.876 266.917 220.776 280.04C225.022 268.718 235.315 262.285 242.648 262.285C254.227 262.285 256.929 268.847 256.929 289.046V321.725L260.017 326.485C260.532 327.386 260.146 327.901 259.116 327.901H238.016C236.987 327.901 236.601 327.386 237.116 326.485L240.204 321.725V296.894C240.204 284.8 240.59 275.973 231.583 275.973C227.852 275.973 223.607 280.564 221.034 285.839C221.162 287.64 221.034 286.987 221.034 289.046V321.725L224.121 326.485C224.636 327.386 224.25 327.901 223.221 327.901H202.121C201.092 327.901 200.706 327.386 201.22 326.485L204.308 321.725V296.894C204.308 284.8 204.694 275.973 195.688 275.973C191.828 275.973 187.582 279.817 185.009 285.221V321.725L188.097 326.485C188.612 327.386 188.226 327.901 187.196 327.901H166.096C165.067 327.901 164.681 327.386 165.196 326.485L168.284 321.725Z" fill="#4200AC"/>
<path d="M295.718 262.285C315.016 262.285 326.596 276.437 326.596 295.736C326.596 315.035 315.016 329.187 295.718 329.187C276.419 329.187 264.84 315.035 264.84 295.736C264.84 276.437 276.419 262.285 295.718 262.285ZM295.718 321.982C303.566 321.982 309.87 317.737 309.87 295.736C309.87 272.449 303.566 269.577 295.718 269.577C287.869 269.577 281.565 272.449 281.565 295.736C281.565 317.737 287.869 321.982 295.718 321.982Z" fill="#4200AC"/>
<path d="M334.383 321.725V269.747L331.296 264.987C330.781 264.086 331.167 263.572 332.196 263.572H351.109V280.04C355.998 268.847 365.261 262.285 373.495 262.285C385.332 262.285 390.092 268.847 390.092 289.046V321.725L393.18 326.485C393.695 327.386 393.309 327.901 392.28 327.901H371.18C370.15 327.901 369.764 327.386 370.279 326.485L373.367 321.725V296.894C373.367 284.8 373.881 275.973 363.717 275.973C359.343 275.973 354.197 280.436 351.109 285.839V321.725L354.197 326.485C354.711 327.386 354.325 327.901 353.296 327.901H332.196C331.167 327.901 330.781 327.386 331.296 326.485L334.383 321.725Z" fill="#4200AC"/>
<path d="M439.194 264.472V237.583L436.107 232.822C435.592 231.922 435.978 231.407 437.007 231.407H455.92V321.725L459.008 326.485C459.523 327.386 459.137 327.901 458.107 327.901H439.194V312.976C434.949 324.298 427.101 329.316 419.896 329.316C408.703 329.316 397.895 318.637 397.895 297.28C397.895 276.952 406.901 262.285 428.902 262.285C432.633 262.285 436.235 263.057 439.194 264.472ZM439.194 305.633L439.171 276.351C436.726 272.234 432.89 269.747 428.902 269.747C409.474 269.747 409.603 319.409 428.902 319.409C433.148 319.409 437.265 313.224 439.194 305.633Z" fill="#4200AC"/>
<path d="M110.04 357.828V392.644H144.392V357.828L141.304 353.068C140.79 352.167 141.176 351.653 142.205 351.653H163.305C164.334 351.653 164.72 352.167 164.205 353.068L161.118 357.828V435.538L164.205 440.298C164.72 441.199 164.334 441.713 163.305 441.713H142.205C141.176 441.713 140.79 441.199 141.304 440.298L144.392 435.538V397.592H110.04V435.538L113.128 440.298C113.643 441.199 113.257 441.713 112.228 441.713H91.1276C90.0983 441.713 89.7123 441.199 90.227 440.298L93.3148 435.538V357.828L90.227 353.068C89.7123 352.167 90.0983 351.653 91.1276 351.653H112.228C113.257 351.653 113.643 352.167 113.128 353.068L110.04 357.828Z" fill="#4200AC"/>
<path d="M220.911 392.23H186.891C181.23 407.797 184.839 431.163 205.553 431.163C212.886 431.163 218.419 428.976 222.922 421.9L223.951 422.543C219.577 433.479 211.6 443 198.605 443C180.593 443 169.014 428.848 169.014 409.549C169.014 390.25 180.593 376.098 198.605 376.098C209.67 376.098 217.819 382.333 220.911 392.23ZM188.184 387.291H206.325C205.81 382.917 201.736 381.096 198.644 381.096C194.932 381.096 189.984 382.951 188.184 387.291Z" fill="#4200AC"/>
<path d="M291.579 435.538V383.56L288.491 378.8C287.977 377.899 288.363 377.384 289.392 377.384H308.305V396.426C312.55 386.776 320.913 378.028 331.978 377.384V396.04H330.691L316.786 389.137C313.699 391.839 309.977 398.499 308.305 402.745V435.538L311.392 440.298C311.907 441.199 311.521 441.713 310.492 441.713H289.392C288.363 441.713 287.977 441.199 288.491 440.298L291.579 435.538Z" fill="#4200AC"/>
<path d="M334.551 379.314V377.384L354.621 356.413H356.551V374.292H369.417V379.314H356.551V413.923C356.551 426.017 357.581 431.292 362.856 431.292C364.142 431.292 366.329 431.163 368.774 428.333L369.546 429.234C365.171 439.526 360.025 443 353.464 443C345.101 443 339.826 438.368 339.826 423.315V379.314H334.551Z" fill="#4200AC"/>
<path d="M283.272 441.713H264.36V424.731C259.985 437.596 252.781 443 243.002 443C233.996 443 227.564 436.567 227.564 426.789C227.564 414.824 238.242 400.286 264.36 397.198C264.36 382.273 258.566 383.155 250.718 383.155H245.769L230.651 396.04H229.365V377.384H249.95C269.249 377.384 281.085 378.414 281.085 401.315V435.538L284.173 440.298C284.688 441.199 284.302 441.713 283.272 441.713ZM264.36 418.209L264.326 402.126C240.267 406.501 237.856 431.935 252.266 431.935C256.383 431.935 262.044 425.671 264.36 418.209Z" fill="#4200AC"/>
<path fill-rule="evenodd" clip-rule="evenodd" d="M272.703 2.16772L271.062 -1.52588e-05L268.368 0.362778L229.539 5.59178L190.721 0.364334L188.027 0.00166321L186.388 2.16867L162.935 33.1639L131.939 56.6909L129.764 58.3417L130.144 61.0457L135.542 99.4793L130.068 138.244L129.687 140.945L131.856 142.597L162.943 166.283L186.601 197.148L188.268 199.322L190.978 198.92L229.493 193.212L268.113 198.922L270.823 199.323L272.489 197.149L296.147 166.284L327.234 142.599L329.385 140.96L329.027 138.28L323.857 99.4791L328.952 61.0096L329.307 58.3262L327.151 56.6896L296.155 33.1628L272.703 2.16772ZM229.545 182.651L246.5 165.695L229.328 163.928L212.57 165.676L229.545 182.651ZM220.348 185.157L202.03 166.838L174.36 165.876L192.323 189.311L220.348 185.157ZM163.606 155.085L162.644 127.428L143.765 107.822L139.667 136.846L163.606 155.085ZM143.779 91.1975L162.447 72.0661L163.407 44.4926L139.742 62.4548L143.779 91.1975ZM174.27 33.6113L201.832 32.6529L220.692 13.7933L192.171 9.95255L174.27 33.6113ZM229.545 16.6425L246.825 33.9231L229.548 35.3328L212.28 33.9067L229.545 16.6425ZM195.631 41.1481L171.774 41.9776L170.954 65.5398L184.846 54.5095L195.631 41.1481ZM163.831 82.4957L147.238 99.5002L164.11 117.021L165.915 99.8737L163.831 82.4957ZM171.14 133.665L171.97 157.513L195.575 158.334L184.868 144.587L171.14 133.665ZM225.359 144.69L225.358 156.022L205.848 158.058L193.339 141.997L208.003 127.334L225.359 144.69ZM233.633 144.689L233.633 156.052L253.149 158.061L265.693 142.055L251.006 127.316L233.633 144.689ZM256.857 121.465L271.53 136.19L287.634 123.569L285.29 103.618H274.704L256.857 121.465ZM274.824 95.3438L257.311 77.8309L271.909 63.2332L287.64 75.7829L285.369 95.3438H274.824ZM251.46 71.98L233.633 54.1527V43.3015L253.538 41.6774L266.009 57.4312L251.46 71.98ZM225.358 54.1528V43.2894L205.838 41.6774L193.103 57.4548L207.58 71.9317L225.358 54.1528ZM201.729 77.7827L184.167 95.3438H173.706L171.36 75.7827L187.173 63.2274L201.729 77.7827ZM184.287 103.618L202.152 121.483L187.515 136.119L171.741 123.569L173.841 103.618H184.287ZM238.733 185.165L266.765 189.31L284.727 165.876L257.059 166.838L238.733 185.165ZM295.483 155.083L319.44 136.83L315.535 107.522L296.445 127.423L295.483 155.083ZM315.521 91.4943L319.365 62.4704L295.683 44.4946L296.642 72.0708L315.521 91.4943ZM284.817 33.6113L266.917 9.95422L238.399 13.7947L257.257 32.6529L284.817 33.6113ZM263.446 158.336L287.119 157.513L287.943 133.84L274.208 144.603L263.446 158.336ZM295.17 116.799L311.764 99.5001L295.195 82.4542L293.177 99.8408L295.17 116.799ZM288.137 65.5947L287.316 41.9776L263.678 41.1557L274.262 54.5258L288.137 65.5947ZM194.717 99.4212L229.496 64.6429L264.274 99.4212L229.496 134.199L194.717 99.4212Z" fill="#5B00EF"/>
<rect x="229.496" y="78.5042" width="29.5507" height="29.5507" transform="rotate(45 229.496 78.5042)" fill="url(#paint0_linear_701_2197)"/>
<defs>
<linearGradient id="paint0_linear_701_2197" x1="222.944" y1="108.17" x2="244.683" y2="113.633" gradientUnits="userSpaceOnUse">
<stop stop-color="#F6C936"/>
<stop offset="1" stop-color="#E94B2E"/>
</linearGradient>
</defs>
</svg>
